<svg xmlns="http://www.w3.org/2000/svg" xmlns:xlink="http://www.w3.org/1999/xlink" width="500" zoomAndPan="magnify" viewBox="0 0 375 374.999991" height="500" preserveAspectRatio="xMidYMid meet" version="1.0"><defs><g/><clipPath id="7a72621d64"><path d="M 113.824219 88.511719 L 236 88.511719 L 236 210 L 113.824219 210 Z M 113.824219 88.511719 " clip-rule="nonzero"/></clipPath><clipPath id="fbcd53789f"><path d="M 115 92 L 293.753906 92 L 293.753906 210 L 115 210 Z M 115 92 " clip-rule="nonzero"/></clipPath></defs><g fill="#003479" fill-opacity="1"><g transform="translate(28.029233, 258.422033)"><g><path d="M 11.484375 -25.796875 C 14.816406 -25.796875 17.242188 -25.082031 18.765625 -23.65625 C 20.296875 -22.226562 21.0625 -20.257812 21.0625 -17.75 C 21.0625 -16.625 20.890625 -15.546875 20.546875 -14.515625 C 20.210938 -13.484375 19.660156 -12.566406 18.890625 -11.765625 C 18.117188 -10.972656 17.09375 -10.34375 15.8125 -9.875 C 14.53125 -9.40625 12.945312 -9.171875 11.0625 -9.171875 L 8.71875 -9.171875 L 8.71875 0 L 3.25 0 L 3.25 -25.796875 Z M 11.203125 -21.3125 L 8.71875 -21.3125 L 8.71875 -13.65625 L 10.515625 -13.65625 C 11.535156 -13.65625 12.421875 -13.789062 13.171875 -14.0625 C 13.929688 -14.332031 14.515625 -14.753906 14.921875 -15.328125 C 15.335938 -15.910156 15.546875 -16.65625 15.546875 -17.5625 C 15.546875 -18.832031 15.191406 -19.773438 14.484375 -20.390625 C 13.773438 -21.003906 12.679688 -21.3125 11.203125 -21.3125 Z M 11.203125 -21.3125 "/></g></g></g><g fill="#003479" fill-opacity="1"><g transform="translate(50.723003, 258.422033)"><g><path d="M 18.109375 0 L 3.25 0 L 3.25 -25.796875 L 18.109375 -25.796875 L 18.109375 -21.3125 L 8.71875 -21.3125 L 8.71875 -15.65625 L 17.453125 -15.65625 L 17.453125 -11.171875 L 8.71875 -11.171875 L 8.71875 -4.515625 L 18.109375 -4.515625 Z M 18.109375 0 "/></g></g></g><g fill="#003479" fill-opacity="1"><g transform="translate(70.963869, 258.422033)"><g><path d="M 26.671875 -12.9375 C 26.671875 -10.945312 26.421875 -9.132812 25.921875 -7.5 C 25.429688 -5.875 24.679688 -4.472656 23.671875 -3.296875 C 22.671875 -2.117188 21.398438 -1.210938 19.859375 -0.578125 C 18.316406 0.046875 16.488281 0.359375 14.375 0.359375 C 12.269531 0.359375 10.445312 0.046875 8.90625 -0.578125 C 7.363281 -1.210938 6.085938 -2.117188 5.078125 -3.296875 C 4.078125 -4.472656 3.328125 -5.878906 2.828125 -7.515625 C 2.335938 -9.148438 2.09375 -10.96875 2.09375 -12.96875 C 2.09375 -15.632812 2.53125 -17.957031 3.40625 -19.9375 C 4.289062 -21.925781 5.644531 -23.46875 7.46875 -24.5625 C 9.289062 -25.65625 11.609375 -26.203125 14.421875 -26.203125 C 17.222656 -26.203125 19.523438 -25.65625 21.328125 -24.5625 C 23.128906 -23.46875 24.46875 -21.925781 25.34375 -19.9375 C 26.226562 -17.945312 26.671875 -15.613281 26.671875 -12.9375 Z M 7.828125 -12.9375 C 7.828125 -11.132812 8.050781 -9.582031 8.5 -8.28125 C 8.957031 -6.976562 9.671875 -5.976562 10.640625 -5.28125 C 11.609375 -4.582031 12.851562 -4.234375 14.375 -4.234375 C 15.9375 -4.234375 17.195312 -4.582031 18.15625 -5.28125 C 19.125 -5.976562 19.828125 -6.976562 20.265625 -8.28125 C 20.703125 -9.582031 20.921875 -11.132812 20.921875 -12.9375 C 20.921875 -15.644531 20.414062 -17.773438 19.40625 -19.328125 C 18.394531 -20.878906 16.734375 -21.65625 14.421875 -21.65625 C 12.878906 -21.65625 11.617188 -21.300781 10.640625 -20.59375 C 9.671875 -19.894531 8.957031 -18.894531 8.5 -17.59375 C 8.050781 -16.300781 7.828125 -14.75 7.828125 -12.9375 Z M 7.828125 -12.9375 "/></g></g></g><g fill="#003479" fill-opacity="1"><g transform="translate(99.728134, 258.422033)"><g><path d="M 11.484375 -25.796875 C 14.816406 -25.796875 17.242188 -25.082031 18.765625 -23.65625 C 20.296875 -22.226562 21.0625 -20.257812 21.0625 -17.75 C 21.0625 -16.625 20.890625 -15.546875 20.546875 -14.515625 C 20.210938 -13.484375 19.660156 -12.566406 18.890625 -11.765625 C 18.117188 -10.972656 17.09375 -10.34375 15.8125 -9.875 C 14.53125 -9.40625 12.945312 -9.171875 11.0625 -9.171875 L 8.71875 -9.171875 L 8.71875 0 L 3.25 0 L 3.25 -25.796875 Z M 11.203125 -21.3125 L 8.71875 -21.3125 L 8.71875 -13.65625 L 10.515625 -13.65625 C 11.535156 -13.65625 12.421875 -13.789062 13.171875 -14.0625 C 13.929688 -14.332031 14.515625 -14.753906 14.921875 -15.328125 C 15.335938 -15.910156 15.546875 -16.65625 15.546875 -17.5625 C 15.546875 -18.832031 15.191406 -19.773438 14.484375 -20.390625 C 13.773438 -21.003906 12.679688 -21.3125 11.203125 -21.3125 Z M 11.203125 -21.3125 "/></g></g></g><g fill="#003479" fill-opacity="1"><g transform="translate(122.421904, 258.422033)"><g><path d="M 3.25 0 L 3.25 -25.796875 L 8.71875 -25.796875 L 8.71875 -4.515625 L 19.1875 -4.515625 L 19.1875 0 Z M 3.25 0 "/></g></g></g><g fill="#003479" fill-opacity="1"><g transform="translate(142.839238, 258.422033)"><g><path d="M 18.109375 0 L 3.25 0 L 3.25 -25.796875 L 18.109375 -25.796875 L 18.109375 -21.3125 L 8.71875 -21.3125 L 8.71875 -15.65625 L 17.453125 -15.65625 L 17.453125 -11.171875 L 8.71875 -11.171875 L 8.71875 -4.515625 L 18.109375 -4.515625 Z M 18.109375 0 "/></g></g></g><g fill="#003479" fill-opacity="1"><g transform="translate(163.080104, 258.422033)"><g/></g></g><g fill="#003479" fill-opacity="1"><g transform="translate(172.468196, 258.422033)"><g><path d="M 14.171875 0 L 7.953125 -20.234375 L 7.796875 -20.234375 C 7.816406 -19.753906 7.851562 -19.03125 7.90625 -18.0625 C 7.96875 -17.09375 8.019531 -16.0625 8.0625 -14.96875 C 8.113281 -13.875 8.140625 -12.882812 8.140625 -12 L 8.140625 0 L 3.25 0 L 3.25 -25.796875 L 10.6875 -25.796875 L 16.796875 -6.078125 L 16.90625 -6.078125 L 23.375 -25.796875 L 30.828125 -25.796875 L 30.828125 0 L 25.734375 0 L 25.734375 -12.21875 C 25.734375 -13.019531 25.742188 -13.953125 25.765625 -15.015625 C 25.796875 -16.078125 25.832031 -17.085938 25.875 -18.046875 C 25.925781 -19.003906 25.96875 -19.722656 26 -20.203125 L 25.828125 -20.203125 L 19.1875 0 Z M 14.171875 0 "/></g></g></g><g fill="#003479" fill-opacity="1"><g transform="translate(206.544144, 258.422033)"><g><path d="M 26.671875 -12.9375 C 26.671875 -10.945312 26.421875 -9.132812 25.921875 -7.5 C 25.429688 -5.875 24.679688 -4.472656 23.671875 -3.296875 C 22.671875 -2.117188 21.398438 -1.210938 19.859375 -0.578125 C 18.316406 0.046875 16.488281 0.359375 14.375 0.359375 C 12.269531 0.359375 10.445312 0.046875 8.90625 -0.578125 C 7.363281 -1.210938 6.085938 -2.117188 5.078125 -3.296875 C 4.078125 -4.472656 3.328125 -5.878906 2.828125 -7.515625 C 2.335938 -9.148438 2.09375 -10.96875 2.09375 -12.96875 C 2.09375 -15.632812 2.53125 -17.957031 3.40625 -19.9375 C 4.289062 -21.925781 5.644531 -23.46875 7.46875 -24.5625 C 9.289062 -25.65625 11.609375 -26.203125 14.421875 -26.203125 C 17.222656 -26.203125 19.523438 -25.65625 21.328125 -24.5625 C 23.128906 -23.46875 24.46875 -21.925781 25.34375 -19.9375 C 26.226562 -17.945312 26.671875 -15.613281 26.671875 -12.9375 Z M 7.828125 -12.9375 C 7.828125 -11.132812 8.050781 -9.582031 8.5 -8.28125 C 8.957031 -6.976562 9.671875 -5.976562 10.640625 -5.28125 C 11.609375 -4.582031 12.851562 -4.234375 14.375 -4.234375 C 15.9375 -4.234375 17.195312 -4.582031 18.15625 -5.28125 C 19.125 -5.976562 19.828125 -6.976562 20.265625 -8.28125 C 20.703125 -9.582031 20.921875 -11.132812 20.921875 -12.9375 C 20.921875 -15.644531 20.414062 -17.773438 19.40625 -19.328125 C 18.394531 -20.878906 16.734375 -21.65625 14.421875 -21.65625 C 12.878906 -21.65625 11.617188 -21.300781 10.640625 -20.59375 C 9.671875 -19.894531 8.957031 -18.894531 8.5 -17.59375 C 8.050781 -16.300781 7.828125 -14.75 7.828125 -12.9375 Z M 7.828125 -12.9375 "/></g></g></g><g fill="#003479" fill-opacity="1"><g transform="translate(235.308409, 258.422033)"><g><path d="M 26.140625 0 L 19.1875 0 L 7.953125 -19.515625 L 7.796875 -19.515625 C 7.847656 -18.703125 7.890625 -17.882812 7.921875 -17.0625 C 7.953125 -16.238281 7.984375 -15.414062 8.015625 -14.59375 C 8.054688 -13.78125 8.097656 -12.960938 8.140625 -12.140625 L 8.140625 0 L 3.25 0 L 3.25 -25.796875 L 10.140625 -25.796875 L 21.359375 -6.46875 L 21.46875 -6.46875 C 21.445312 -7.269531 21.414062 -8.066406 21.375 -8.859375 C 21.34375 -9.648438 21.3125 -10.4375 21.28125 -11.21875 C 21.257812 -12.007812 21.238281 -12.800781 21.21875 -13.59375 L 21.21875 -25.796875 L 26.140625 -25.796875 Z M 26.140625 0 "/></g></g></g><g fill="#003479" fill-opacity="1"><g transform="translate(264.690312, 258.422033)"><g><path d="M 3.25 0 L 3.25 -25.796875 L 8.71875 -25.796875 L 8.71875 0 Z M 3.25 0 "/></g></g></g><g fill="#003479" fill-opacity="1"><g transform="translate(276.654835, 258.422033)"><g><path d="M 13.203125 0 L 7.734375 0 L 7.734375 -21.25 L 0.71875 -21.25 L 0.71875 -25.796875 L 20.203125 -25.796875 L 20.203125 -21.25 L 13.203125 -21.25 Z M 13.203125 0 "/></g></g></g><g fill="#003479" fill-opacity="1"><g transform="translate(297.583926, 258.422033)"><g><path d="M 26.671875 -12.9375 C 26.671875 -10.945312 26.421875 -9.132812 25.921875 -7.5 C 25.429688 -5.875 24.679688 -4.472656 23.671875 -3.296875 C 22.671875 -2.117188 21.398438 -1.210938 19.859375 -0.578125 C 18.316406 0.046875 16.488281 0.359375 14.375 0.359375 C 12.269531 0.359375 10.445312 0.046875 8.90625 -0.578125 C 7.363281 -1.210938 6.085938 -2.117188 5.078125 -3.296875 C 4.078125 -4.472656 3.328125 -5.878906 2.828125 -7.515625 C 2.335938 -9.148438 2.09375 -10.96875 2.09375 -12.96875 C 2.09375 -15.632812 2.53125 -17.957031 3.40625 -19.9375 C 4.289062 -21.925781 5.644531 -23.46875 7.46875 -24.5625 C 9.289062 -25.65625 11.609375 -26.203125 14.421875 -26.203125 C 17.222656 -26.203125 19.523438 -25.65625 21.328125 -24.5625 C 23.128906 -23.46875 24.46875 -21.925781 25.34375 -19.9375 C 26.226562 -17.945312 26.671875 -15.613281 26.671875 -12.9375 Z M 7.828125 -12.9375 C 7.828125 -11.132812 8.050781 -9.582031 8.5 -8.28125 C 8.957031 -6.976562 9.671875 -5.976562 10.640625 -5.28125 C 11.609375 -4.582031 12.851562 -4.234375 14.375 -4.234375 C 15.9375 -4.234375 17.195312 -4.582031 18.15625 -5.28125 C 19.125 -5.976562 19.828125 -6.976562 20.265625 -8.28125 C 20.703125 -9.582031 20.921875 -11.132812 20.921875 -12.9375 C 20.921875 -15.644531 20.414062 -17.773438 19.40625 -19.328125 C 18.394531 -20.878906 16.734375 -21.65625 14.421875 -21.65625 C 12.878906 -21.65625 11.617188 -21.300781 10.640625 -20.59375 C 9.671875 -19.894531 8.957031 -18.894531 8.5 -17.59375 C 8.050781 -16.300781 7.828125 -14.75 7.828125 -12.9375 Z M 7.828125 -12.9375 "/></g></g></g><g fill="#003479" fill-opacity="1"><g transform="translate(326.348191, 258.422033)"><g><path d="M 10.765625 -25.796875 C 13.109375 -25.796875 15.039062 -25.515625 16.5625 -24.953125 C 18.082031 -24.390625 19.210938 -23.535156 19.953125 -22.390625 C 20.691406 -21.253906 21.0625 -19.816406 21.0625 -18.078125 C 21.0625 -16.898438 20.835938 -15.867188 20.390625 -14.984375 C 19.953125 -14.097656 19.367188 -13.347656 18.640625 -12.734375 C 17.910156 -12.128906 17.117188 -11.628906 16.265625 -11.234375 L 23.859375 0 L 17.78125 0 L 11.625 -9.90625 L 8.71875 -9.90625 L 8.71875 0 L 3.25 0 L 3.25 -25.796875 Z M 10.375 -21.3125 L 8.71875 -21.3125 L 8.71875 -14.34375 L 10.484375 -14.34375 C 12.296875 -14.34375 13.59375 -14.644531 14.375 -15.25 C 15.15625 -15.863281 15.546875 -16.753906 15.546875 -17.921875 C 15.546875 -19.148438 15.125 -20.019531 14.28125 -20.53125 C 13.4375 -21.050781 12.132812 -21.3125 10.375 -21.3125 Z M 10.375 -21.3125 "/></g></g></g><g clip-path="url(#7a72621d64)"><path fill="#003479" d="M 174.425781 88.53125 C 193.886719 88.53125 211.203125 97.722656 222.304688 111.992188 C 217.617188 115.035156 213.03125 118.269531 208.566406 121.667969 C 200.523438 111.703125 188.207031 105.332031 174.425781 105.332031 C 155.648438 105.332031 139.640625 117.117188 133.359375 133.707031 C 128.097656 131.898438 122.710938 130.363281 117.191406 129.078125 C 125.507812 105.457031 147.988281 88.53125 174.425781 88.53125 Z M 234.550781 141.1875 C 234.902344 143.847656 235.082031 146.539062 235.082031 149.292969 C 235.082031 181 210.804688 207.042969 179.84375 209.796875 C 181.84375 206.402344 184.019531 203.023438 186.132812 199.769531 C 188.546875 196.085938 191.023438 192.453125 193.582031 188.851562 C 205.371094 183.117188 214.210938 172.257812 217.203125 159.15625 C 222.703125 152.988281 228.472656 146.96875 234.550781 141.1875 Z M 163.5 209.058594 C 135.210938 203.902344 113.753906 179.109375 113.753906 149.289062 C 113.753906 147.496094 113.832031 145.734375 113.996094 143.992188 C 120.246094 148.652344 126.660156 154.707031 131.859375 160.101562 C 134.882812 172.019531 142.746094 181.992188 153.238281 187.789062 C 157.296875 194.566406 160.769531 201.675781 163.5 209.058594 Z M 163.5 209.058594 " fill-opacity="1" fill-rule="evenodd"/></g><path fill="#00c2cb" d="M 174.425781 117.597656 C 182.882812 117.597656 189.746094 124.46875 189.746094 132.941406 C 189.746094 141.414062 182.882812 148.285156 174.425781 148.285156 C 165.949219 148.285156 159.085938 141.414062 159.085938 132.941406 C 159.085938 124.46875 165.949219 117.597656 174.425781 117.597656 Z M 174.425781 117.597656 " fill-opacity="1" fill-rule="evenodd"/><g clip-path="url(#fbcd53789f)"><path fill="#00c2cb" d="M 115.207031 136.015625 C 115.207031 136.015625 155.839844 163.59375 171.464844 209.972656 C 171.464844 209.972656 218.382812 124.308594 293.753906 92.265625 C 293.753906 92.265625 232.410156 95.324219 174.121094 164.765625 C 157.105469 150.316406 137.324219 141.136719 115.207031 136.015625 Z M 115.207031 136.015625 " fill-opacity="1" fill-rule="evenodd"/></g></svg>