<?xml version="1.0" standalone="no"?>
<!DOCTYPE svg PUBLIC "-//W3C//DTD SVG 20010904//EN"
 "http://www.w3.org/TR/2001/REC-SVG-20010904/DTD/svg10.dtd">
<svg version="1.0" xmlns="http://www.w3.org/2000/svg"
 width="1280.000000pt" height="658.000000pt" viewBox="0 0 1280.000000 658.000000"
 preserveAspectRatio="none">
<metadata>
Created by potrace 1.15, written by Peter Selinger 2001-2017
</metadata>
<g transform="translate(0.000000,658.000000) scale(0.100000,-0.100000)"
fill="#2d4573" stroke="none">
<path d="M5185 5391 c-66 -10 -135 -26 -154 -35 -23 -12 -94 -24 -232 -37
-186 -18 -205 -21 -292 -57 -52 -21 -113 -54 -135 -72 -39 -31 -49 -34 -149
-43 -89 -8 -132 -7 -246 8 -164 22 -225 15 -364 -39 -90 -35 -117 -36 -134 -5
-8 16 -6 19 11 19 26 0 26 17 0 25 -13 4 -33 -2 -54 -14 -18 -12 -43 -21 -55
-21 -42 0 -100 -38 -120 -80 -11 -22 -15 -40 -9 -40 5 0 25 -15 45 -33 28 -28
35 -42 36 -74 1 -75 -22 -105 -101 -128 -47 -14 -10 -22 40 -8 29 7 62 11 74
9 24 -6 153 24 249 58 84 31 144 33 175 8 18 -14 26 -37 36 -98 22 -136 19
-164 -28 -254 -37 -71 -42 -88 -41 -144 0 -51 6 -75 27 -113 15 -26 34 -77 42
-113 21 -92 56 -145 119 -185 38 -25 57 -44 64 -68 20 -59 105 -118 211 -147
79 -21 158 -68 222 -134 35 -35 75 -67 88 -71 34 -10 60 -35 60 -56 0 -10 -16
-49 -36 -86 -32 -61 -35 -74 -32 -128 3 -48 11 -71 41 -117 20 -32 50 -85 67
-117 26 -53 102 -141 121 -141 4 0 17 -16 29 -35 20 -33 22 -54 30 -288 7
-204 13 -266 29 -327 11 -41 21 -84 21 -95 0 -36 57 -142 98 -183 44 -44 128
-78 167 -68 14 3 29 16 36 27 9 17 6 28 -17 62 -23 34 -30 57 -35 122 -8 99 8
159 52 200 74 70 173 222 205 314 19 53 42 79 113 124 46 29 70 79 86 179 9
56 25 105 49 151 20 38 36 80 36 93 0 64 -69 125 -183 164 -92 30 -138 62
-182 126 -32 46 -53 64 -102 88 -34 17 -86 54 -115 82 -48 45 -58 50 -103 52
-27 1 -79 10 -115 19 l-65 16 -65 -28 c-36 -15 -75 -29 -87 -32 -37 -9 -72 22
-79 67 -4 23 -20 57 -35 77 -32 39 -36 69 -15 98 12 17 17 18 57 6 23 -7 56
-27 72 -44 17 -18 34 -31 39 -29 5 1 37 -5 69 -14 49 -14 67 -15 98 -5 72 21
55 81 -31 112 -21 7 -38 19 -38 27 0 8 -6 12 -15 8 -9 -3 -15 0 -15 9 0 8 -6
15 -14 15 -18 0 -28 27 -13 34 9 5 9 7 0 12 -7 3 -9 12 -6 21 3 8 0 18 -6 23
-7 4 -15 26 -18 49 -5 39 -3 44 48 94 29 28 74 77 100 108 70 83 165 147 236
160 34 6 82 25 115 45 42 26 67 34 102 34 54 0 96 32 96 73 0 58 -24 146 -52
189 -16 26 -32 65 -35 86 -5 35 -1 44 41 91 59 67 59 89 1 163 -70 90 -58 110
54 88 98 -19 101 -23 98 -149 -2 -119 7 -145 66 -182 48 -30 88 -19 151 39 53
48 182 112 226 112 11 0 28 -10 38 -22 54 -68 69 -78 120 -78 57 0 102 28 102
63 0 31 -9 41 -57 66 -54 27 -54 45 -5 108 48 62 92 130 92 142 0 6 8 14 17
20 16 8 14 10 -10 16 -15 4 -27 11 -27 15 0 5 -35 16 -77 26 -65 14 -99 16
-213 8 -155 -10 -294 -10 -465 -1 -90 4 -150 2 -240 -12z m-297 -477 c26 -18
29 -60 5 -86 -36 -40 -153 -9 -153 42 0 48 99 78 148 44z m-375 -862 c27 -24
22 -74 -11 -105 -23 -22 -38 -27 -76 -27 -32 0 -60 -7 -83 -21 -70 -43 -111 2
-78 87 22 57 45 72 130 82 76 9 91 7 118 -16z"/>
<path d="M6640 5351 c-19 -4 -47 -15 -62 -25 -29 -19 -29 -19 19 -72 41 -45
141 -24 176 37 10 18 16 33 15 34 -2 1 -19 9 -40 18 -38 18 -52 19 -108 8z"/>
<path d="M7730 5347 c-14 -6 -26 -12 -28 -13 -2 -1 2 -11 9 -22 33 -53 -25
-104 -120 -104 -37 1 -74 -7 -111 -22 -61 -27 -85 -24 -75 8 4 11 7 27 7 34 1
6 7 12 15 12 7 0 13 6 13 14 0 16 -108 40 -136 30 -34 -12 -66 -48 -89 -101
-20 -45 -29 -53 -65 -64 -38 -11 -55 -9 -179 21 -127 31 -143 32 -195 22 -86
-17 -112 -34 -218 -136 -106 -101 -110 -109 -82 -183 34 -88 -15 -101 -75 -19
-65 88 -114 84 -180 -13 -46 -68 -53 -111 -20 -138 71 -61 89 -83 89 -106 0
-27 -23 -57 -44 -57 -7 0 -25 -12 -39 -26 -33 -33 -43 -94 -27 -167 13 -55 13
-56 -25 -122 -34 -61 -83 -107 -120 -111 -25 -3 -29 -6 -13 -12 16 -6 15 -13
-8 -77 -23 -66 -37 -185 -35 -295 2 -69 142 -250 206 -266 15 -4 85 -1 154 6
114 12 130 11 159 -4 41 -21 59 -50 71 -112 5 -27 24 -79 41 -117 42 -89 46
-130 25 -236 l-18 -89 31 -88 c17 -49 34 -106 38 -128 12 -67 70 -219 95 -244
22 -23 29 -24 90 -19 83 7 133 28 182 75 53 51 146 202 164 265 18 60 57 107
90 107 26 0 26 0 27 -93 1 -62 4 -71 29 -93 62 -53 106 -15 160 134 45 125 48
182 12 206 -27 18 -58 11 -103 -24 -37 -29 -59 -25 -70 13 -36 117 -38 187 -7
248 9 15 49 65 91 109 96 103 144 197 144 283 l0 58 69 67 c39 38 80 90 95
120 28 56 60 78 98 69 13 -4 53 -35 88 -69 58 -56 71 -76 114 -178 59 -139 69
-155 120 -191 49 -36 80 -37 102 -3 16 24 16 29 1 78 -29 91 -18 132 57 209
41 43 51 48 83 45 31 -2 43 -10 68 -46 16 -23 49 -64 71 -91 56 -66 64 -118
33 -205 l-23 -63 62 -99 c78 -123 156 -208 217 -235 28 -13 77 -23 123 -25 42
-3 126 -17 186 -32 l108 -26 24 28 c14 15 22 31 19 36 -3 5 -1 10 5 12 5 1 7
13 3 26 -3 13 -11 21 -18 18 -7 -2 -17 6 -23 19 -13 27 9 65 37 65 24 0 199
-87 229 -114 13 -12 30 -33 38 -48 24 -46 -6 -79 -37 -41 -17 20 -87 52 -115
53 -12 0 -42 -11 -68 -25 -26 -14 -54 -25 -63 -25 -9 0 -57 -40 -107 -89 -68
-66 -108 -97 -156 -118 -100 -46 -124 -84 -134 -218 -4 -44 -9 -94 -12 -111
-4 -20 1 -44 11 -64 l17 -33 62 6 c34 3 97 17 141 31 105 34 145 34 179 -1 50
-49 106 -144 106 -177 0 -37 31 -76 61 -76 11 0 32 13 47 30 15 16 86 89 158
162 72 73 139 151 150 173 12 26 19 61 19 100 0 50 -6 72 -39 135 -37 72 -75
191 -76 236 0 29 16 34 87 25 65 -8 83 -5 83 11 0 6 -7 8 -15 4 -11 -4 -13 -1
-6 12 4 9 14 31 22 47 20 42 62 46 95 10 14 -15 28 -25 31 -21 3 3 14 -4 24
-15 12 -14 24 -19 38 -14 35 11 27 23 -59 82 -25 17 -63 47 -85 68 -41 38 -83
60 -94 50 -3 -3 1 -10 9 -15 36 -23 -50 -8 -169 30 -69 22 -165 51 -213 65
-48 15 -94 32 -101 40 -10 9 -31 12 -70 9 -73 -7 -130 15 -125 48 3 21 7 23
57 20 59 -3 85 11 95 54 8 32 -26 126 -63 173 -17 22 -38 55 -46 75 -20 48
-54 70 -88 57 -32 -12 -44 -61 -28 -117 22 -79 16 -99 -51 -172 -74 -80 -183
-166 -202 -159 -16 6 -46 90 -46 128 0 22 8 32 40 50 23 13 50 38 62 57 18 29
20 43 14 101 -5 59 -3 74 17 111 27 51 71 77 142 83 64 6 73 24 57 118 -15 88
-15 142 0 157 19 19 54 14 86 -13 17 -14 34 -25 40 -25 6 0 12 -5 14 -11 5
-14 152 76 179 109 18 23 20 34 13 82 -4 30 -7 87 -6 127 0 69 -1 71 -26 78
-46 11 -70 33 -103 95 -29 55 -69 95 -161 161 -13 10 -20 20 -16 24 10 10 139
35 150 29 5 -3 19 -22 32 -42 28 -44 126 -142 142 -142 7 0 15 -7 18 -16 5
-13 12 -9 31 20 27 40 31 66 21 141 -7 49 -6 51 38 96 40 41 44 50 37 75 -8
33 -75 87 -166 136 -58 31 -64 32 -225 38 -91 4 -171 9 -177 13 -6 4 -55 11
-108 17 -74 8 -121 20 -195 50 -137 55 -182 59 -250 25 -50 -26 -60 -27 -164
-23 -96 3 -118 8 -163 31 -28 14 -75 30 -105 35 -29 5 -104 24 -166 41 -122
34 -135 35 -172 18z m1571 -932 c23 -52 18 -78 -16 -101 -30 -19 -58 -7 -80
36 -18 35 -8 70 27 94 35 25 48 20 69 -29z m-2460 -141 l24 -26 -28 -24 c-15
-13 -38 -24 -50 -24 -31 0 -67 27 -67 50 0 24 37 50 70 50 16 0 37 -11 51 -26z
m197 -52 c4 -14 -34 -16 -42 -3 -6 10 13 21 28 17 6 -1 12 -8 14 -14z"/>
<path d="M7175 5341 c-3 -5 -1 -12 5 -16 5 -3 10 1 10 9 0 18 -6 21 -15 7z"/>
<path d="M7055 5330 c-3 -5 3 -10 14 -10 12 0 21 5 21 10 0 6 -6 10 -14 10 -8
0 -18 -4 -21 -10z"/>
<path d="M7100 5330 c0 -5 5 -10 10 -10 6 0 10 5 10 10 0 6 -4 10 -10 10 -5 0
-10 -4 -10 -10z"/>
<path d="M7298 5333 c7 -3 16 -2 19 1 4 3 -2 6 -13 5 -11 0 -14 -3 -6 -6z"/>
<path d="M7200 5320 c0 -5 4 -10 9 -10 6 0 13 5 16 10 3 6 -1 10 -9 10 -9 0
-16 -4 -16 -10z"/>
<path d="M7248 5323 c6 -2 18 -2 25 0 6 3 1 5 -13 5 -14 0 -19 -2 -12 -5z"/>
<path d="M3150 4730 c0 -5 5 -10 10 -10 6 0 10 5 10 10 0 6 -4 10 -10 10 -5 0
-10 -4 -10 -10z"/>
<path d="M9265 4070 c-3 -5 -1 -10 4 -10 6 0 11 5 11 10 0 6 -2 10 -4 10 -3 0
-8 -4 -11 -10z"/>
<path d="M2838 3884 c12 -9 22 -27 22 -40 0 -17 4 -22 15 -18 31 12 8 58 -35
68 l-25 7 23 -17z"/>
<path d="M4870 3816 c0 -18 35 -22 45 -6 3 6 2 10 -4 10 -5 0 -16 3 -25 6 -11
4 -16 1 -16 -10z"/>
<path d="M4996 3745 c4 -8 8 -15 10 -15 2 0 4 7 4 15 0 8 -4 15 -10 15 -5 0
-7 -7 -4 -15z"/>
<path d="M8507 3683 c-11 -10 -8 -51 3 -58 6 -4 10 8 10 29 0 37 -2 41 -13 29z"/>
<path d="M7600 3660 c0 -5 7 -10 15 -10 8 0 15 5 15 10 0 6 -7 10 -15 10 -8 0
-15 -4 -15 -10z"/>
<path d="M9300 3439 c0 -5 5 -7 10 -4 6 3 10 8 10 11 0 2 -4 4 -10 4 -5 0 -10
-5 -10 -11z"/>
<path d="M4290 3322 c0 -15 5 -19 20 -15 12 3 19 6 18 7 -2 1 -11 8 -20 15
-16 12 -18 11 -18 -7z"/>
<path d="M9775 3279 c-10 -15 3 -25 16 -12 7 7 7 13 1 17 -6 3 -14 1 -17 -5z"/>
<path d="M9396 3125 c-3 -8 -2 -15 3 -15 5 0 14 7 21 15 10 12 10 15 -3 15 -8
0 -17 -7 -21 -15z"/>
<path d="M9890 3090 c0 -5 5 -10 10 -10 6 0 10 5 10 10 0 6 -4 10 -10 10 -5 0
-10 -4 -10 -10z"/>
<path d="M10090 3050 c0 -13 18 -22 24 -11 3 5 -1 11 -9 15 -8 3 -15 1 -15 -4z"/>
<path d="M9900 3019 c0 -5 5 -7 10 -4 6 3 10 8 10 11 0 2 -4 4 -10 4 -5 0 -10
-5 -10 -11z"/>
<path d="M2450 2971 c0 -5 7 -11 15 -15 8 -3 15 -1 15 3 0 5 -7 11 -15 15 -8
3 -15 1 -15 -3z"/>
<path d="M3020 2930 c0 -5 5 -10 10 -10 6 0 10 5 10 10 0 6 -4 10 -10 10 -5 0
-10 -4 -10 -10z"/>
<path d="M10194 2914 c3 -9 6 -18 6 -20 0 -2 4 -4 9 -4 5 0 7 9 4 20 -3 11
-10 20 -15 20 -6 0 -7 -7 -4 -16z"/>
<path d="M10456 2891 c-4 -7 -5 -15 -2 -18 9 -9 19 4 14 18 -4 11 -6 11 -12 0z"/>
<path d="M10416 2862 c-2 -4 1 -15 8 -24 11 -15 13 -15 23 2 7 10 9 21 6 24
-9 8 -31 8 -37 -2z"/>
<path d="M10090 2796 c0 -20 37 -63 60 -69 29 -8 25 8 -14 48 -37 38 -46 42
-46 21z"/>
<path d="M10085 2348 c-46 -48 -84 -76 -162 -116 -106 -55 -119 -66 -124 -117
-4 -28 -2 -29 39 -33 38 -3 55 3 135 51 51 30 120 69 155 87 94 50 126 109 85
158 -37 44 -63 38 -128 -30z"/>
<path d="M7945 2210 c3 -5 8 -10 11 -10 2 0 4 5 4 10 0 6 -5 10 -11 10 -5 0
-7 -4 -4 -10z"/>
<path d="M7760 2040 c0 -5 6 -10 14 -10 8 0 18 5 21 10 3 6 -3 10 -14 10 -12
0 -21 -4 -21 -10z"/>
<path d="M5210 1981 c0 -10 26 -9 36 2 4 4 -2 7 -14 7 -12 0 -22 -4 -22 -9z"/>
<path d="M5670 1920 c0 -6 7 -10 15 -10 8 0 15 2 15 4 0 2 -7 6 -15 10 -8 3
-15 1 -15 -4z"/>
<path d="M5285 1686 c-16 -7 -56 -42 -87 -78 -32 -36 -73 -73 -92 -82 -42 -20
-130 -21 -230 -1 -72 13 -80 13 -139 -7 -50 -17 -90 -21 -212 -23 -214 -3
-334 -26 -447 -86 -10 -5 -25 -9 -33 -9 -18 0 -20 -16 -2 -23 7 -3 5 -6 -5 -6
-11 -1 -18 -9 -18 -22 0 -22 -18 -60 -32 -70 -18 -11 48 -70 103 -91 l54 -21
2234 2 c2166 3 2236 3 2296 22 70 21 89 38 108 95 10 28 27 48 61 71 42 29 79
43 225 85 26 8 52 24 64 40 19 25 19 28 3 52 -12 19 -36 31 -89 46 -39 12
-117 36 -172 53 -94 30 -107 32 -215 27 -139 -5 -221 -5 -410 -1 -211 4 -450
-13 -534 -39 -73 -23 -99 -22 -201 4 -33 8 -96 23 -140 32 l-80 16 -144 -36
c-78 -20 -166 -36 -195 -36 -28 0 -67 -5 -86 -10 -19 -6 -123 -12 -230 -15
-107 -3 -252 -9 -321 -13 l-126 -8 -67 -44 c-53 -34 -83 -46 -143 -56 -48 -9
-91 -23 -116 -40 -30 -20 -47 -24 -71 -20 -105 20 -107 20 -162 -10 -50 -27
-55 -28 -100 -16 -65 18 -71 24 -76 86 -4 42 -12 62 -40 97 -19 24 -41 61 -48
82 -11 36 -34 67 -48 67 -4 -1 -20 -7 -37 -14z"/>
</g>
</svg>
